Coordinates
version=1
nRows=23
nColumns=38
inDegrees=no

Units are S.I. units (second, meters, Newtons, ...)
If the header above contains a line with 'inDegrees', this indicates whether rotational values are in degrees (yes) or radians (no).

endheader
time	pelvis_tilt	pelvis_list	pelvis_rotation	pelvis_tx	pelvis_ty	pelvis_tz	hip_flexion_r	hip_adduction_r	hip_rotation_r	knee_angle_r	ankle_angle_r	subtalar_angle_r	mtp_angle_r	hip_flexion_l	hip_adduction_l	hip_rotation_l	knee_angle_l	ankle_angle_l	subtalar_angle_l	mtp_angle_l	lumbar_extension	lumbar_bending	lumbar_rotation	arm_flex_r	arm_add_r	arm_rot_r	elbow_flex_r	pro_sup_r	wrist_flex_r	wrist_dev_r	arm_flex_l	arm_add_l	arm_rot_l	elbow_flex_l	pro_sup_l	wrist_flex_l	wrist_dev_l
2.97	-0.354956	1.53554	-1.15424	0.718226	-0.527498	0.921231	-0.241416	-0.0187602	-0.339804	0.58988	-0.173579	0	0	0.275034	0.0296884	-0.0855226	0.316463	-0.29058	0	0	-0.120552	0.0265904	0.00158053	0.0647576	-0.264804	0.268779	0.841786	1.5708	0	0	-0.222449	-0.236455	0.12682	0.744759	1.5708	0	0
2.98	-0.403122	1.54279	-1.1066	0.719757	-0.539029	0.921244	-0.226877	-0.0286965	-0.331999	0.627882	-0.191152	0	0	0.280853	0.0304295	-0.0866188	0.337997	-0.291023	0	0	-0.107833	0.0239892	0.00290268	0.0523587	-0.264042	0.270194	0.835271	1.5708	0	0	-0.224807	-0.235357	0.131524	0.733324	1.5708	0	0
2.99	-0.459634	1.54918	-1.04882	0.721515	-0.550554	0.921561	-0.21198	-0.0387343	-0.323408	0.667082	-0.212166	0	0	0.284786	0.0320882	-0.084627	0.358638	-0.290951	0	0	-0.0959162	0.02161	0.00183103	0.0401473	-0.262934	0.271599	0.828441	1.5708	0	0	-0.226766	-0.234375	0.13689	0.721576	1.5708	0	0
3	-0.457641	1.55471	-1.04923	0.72329	-0.561863	0.922238	-0.196392	-0.0498466	-0.310541	0.708438	-0.233315	0	0	0.285256	0.0355239	-0.0818455	0.375468	-0.288651	0	0	-0.0859082	0.0182622	-0.000277296	0.0295127	-0.261544	0.273998	0.820647	1.5708	0	0	-0.227492	-0.233698	0.143289	0.709221	1.5708	0	0
3.01	-2.17515	1.56083	0.662363	0.724324	-0.572081	0.922238	-0.176108	-0.0489602	-0.154807	0.722451	-0.237328	0	0	0.3032	0.0349492	-0.077906	0.393107	-0.281025	0	0	-0.0603409	0.0171528	0.0041581	0.0228637	-0.259604	0.280511	0.804918	1.5708	0	0	-0.224737	-0.230425	0.150398	0.688752	1.5708	0	0
3.02	-2.54858	1.56232	1.03781	0.726083	-0.582913	0.923387	-0.15787	-0.0599295	-0.14487	0.766884	-0.27072	0	0	0.297016	0.0401339	-0.0769277	0.403739	-0.273574	0	0	-0.055843	0.0129075	-0.00105186	0.0163875	-0.259573	0.289066	0.79778	1.5708	0	0	-0.225497	-0.230311	0.155313	0.680236	1.5708	0	0
3.03	-2.96422	1.56311	1.45564	0.727854	-0.593575	0.924582	-0.137683	-0.0707524	-0.136921	0.812297	-0.308889	0	0	0.289131	0.0454389	-0.0779397	0.412502	-0.266406	0	0	-0.0527698	0.00890729	-0.00741829	0.010589	-0.260234	0.299054	0.792242	1.5708	0	0	-0.226639	-0.230355	0.159458	0.67403	1.5708	0	0
3.04	2.83	1.56374	1.9463	0.729598	-0.604063	0.925822	-0.116601	-0.0817612	-0.129748	0.857999	-0.345664	0	0	0.278196	0.0507907	-0.0813576	0.418394	-0.260097	0	0	-0.0521943	0.00543967	-0.0154669	0.00546384	-0.261502	0.310147	0.788545	1.5708	0	0	-0.228431	-0.230565	0.162636	0.670407	1.5708	0	0
3.05	2.51325	1.56164	2.26464	0.731237	-0.614299	0.926899	-0.0913787	-0.0926177	-0.123096	0.903685	-0.400247	0	0	0.268226	0.0555323	-0.0864505	0.423545	-0.251089	0	0	-0.0496908	0.00199216	-0.0161238	-0.00547823	-0.262845	0.309279	0.791114	1.5708	0	0	-0.22414	-0.233989	0.179443	0.665749	1.5708	0	0
3.06	2.18105	1.55993	2.5975	0.732746	-0.624242	0.927982	-0.0667702	-0.103511	-0.116126	0.94991	-0.439153	0	0	0.254969	0.0598377	-0.0938435	0.426079	-0.24344	0	0	-0.050305	-0.00139907	-0.0224263	-0.0101947	-0.265252	0.318759	0.791862	1.5708	0	0	-0.223949	-0.235844	0.186627	0.665896	1.5708	0	0
3.07	1.94519	1.55788	2.83376	0.734176	-0.633984	0.929008	-0.0413364	-0.113698	-0.109734	0.996737	-0.472	0	0	0.240646	0.0632448	-0.101436	0.426849	-0.236424	0	0	-0.051461	-0.00426384	-0.0288221	-0.0138441	-0.268855	0.330571	0.793389	1.5708	0	0	-0.223318	-0.238186	0.194085	0.667868	1.5708	0	0
3.08	1.74942	1.55618	3.02996	0.735524	-0.643525	0.930077	-0.0156375	-0.122744	-0.104218	1.0435	-0.499777	0	0	0.225079	0.0655098	-0.107918	0.42494	-0.231114	0	0	-0.0536916	-0.00639865	-0.0352516	-0.0169075	-0.272239	0.340831	0.795386	1.5708	0	0	-0.221999	-0.241079	0.201703	0.671344	1.5708	0	0
3.09	1.53819	1.55503	-3.04158	0.73676	-0.652817	0.931281	0.00950149	-0.130157	-0.0988129	1.08833	-0.523933	0	0	0.207916	0.06647	-0.11251	0.419758	-0.228136	0	0	-0.0577234	-0.00744997	-0.042075	-0.0190946	-0.274906	0.348404	0.797732	1.5708	0	0	-0.21972	-0.243831	0.20847	0.675628	1.5708	0	0
3.1	1.0616	1.54896	-2.56043	0.738574	-0.662419	0.932917	0.0339512	-0.149515	-0.164788	1.14955	-0.544078	0	0	0.181195	0.0700907	-0.115621	0.410187	-0.227079	0	0	-0.0691347	-0.0090935	-0.0510852	-0.0252478	-0.277599	0.346864	0.805908	1.5708	0	0	-0.215714	-0.247381	0.217631	0.681971	1.5708	0	0
3.11	0.784475	1.5431	-2.28026	0.740177	-0.671598	0.934717	0.0577736	-0.16368	-0.202494	1.19502	-0.564655	0	0	0.156111	0.0703694	-0.116198	0.399488	-0.227845	0	0	-0.079261	-0.00777597	-0.0651493	-0.0213561	-0.282755	0.363667	0.807122	1.5708	0	0	-0.213853	-0.248324	0.217801	0.68829	1.5708	0	0
3.12	0.639527	1.54217	-2.13536	0.74124	-0.680299	0.936219	0.0829071	-0.166181	-0.194798	1.23137	-0.557114	0	0	0.138714	0.0669666	-0.1167	0.391694	-0.22681	0	0	-0.0842187	-0.00392503	-0.067935	-0.0265335	-0.283036	0.354464	0.811298	1.5708	0	0	-0.203886	-0.249377	0.226637	0.688992	1.5708	0	0
3.13	0.518042	1.54211	-2.01446	0.742188	-0.688787	0.937572	0.109816	-0.167477	-0.184687	1.26648	-0.532818	0	0	0.122965	0.0632185	-0.118831	0.383963	-0.226156	0	0	-0.0870861	1.12762e-05	-0.0741443	-0.0261035	-0.285335	0.357443	0.812543	1.5708	0	0	-0.196262	-0.251111	0.23429	0.690993	1.5708	0	0
3.14	0.395912	1.54414	-1.89099	0.743292	-0.697199	0.938728	0.137813	-0.167217	-0.176244	1.29645	-0.504944	0	0	0.110753	0.0586229	-0.122907	0.379021	-0.224466	0	0	-0.0866997	0.00507344	-0.0810357	-0.0268081	-0.287554	0.35859	0.813254	1.5708	0	0	-0.187017	-0.252988	0.244274	0.691409	1.5708	0	0
3.15	0.244198	1.55394	-1.74049	0.743833	-0.70533	0.939264	0.169643	-0.154494	-0.121636	1.31561	-0.45721	0	0	0.108514	0.0517814	-0.126183	0.377448	-0.219465	0	0	-0.0731526	0.0115296	-0.0925072	-0.00899045	-0.306237	0.425177	0.805182	1.49875	0	0	-0.181459	-0.254407	0.252778	0.687846	1.5708	0	0
3.16	-0.130588	1.55921	-1.36468	0.744656	-0.713562	0.940014	0.199661	-0.146961	-0.0923474	1.32981	-0.433557	0	0	0.101379	0.0462551	-0.126692	0.373589	-0.214513	0	0	-0.0705114	0.018562	-0.0761338	-0.045655	-0.287173	0.325167	0.820013	1.5708	0	0	-0.152467	-0.26014	0.294345	0.680787	1.5708	0	0
3.17	-0.531949	1.55809	-0.960036	0.74578	-0.72175	0.940906	0.225901	-0.143998	-0.0850171	1.34262	-0.42158	0	0	0.0892436	0.0415593	-0.125155	0.368797	-0.210859	0	0	-0.0698806	0.0252759	-0.0820581	-0.050344	-0.288129	0.31509	0.824235	1.5708	0	0	-0.139966	-0.261919	0.305458	0.682599	1.5708	0	0
3.18	-0.773957	1.55516	-0.713901	0.746971	-0.729923	0.941732	0.250796	-0.14256	-0.0857942	1.3521	-0.410483	0	0	0.0771592	0.0372384	-0.123925	0.364023	-0.208477	0	0	-0.0700237	0.0316562	-0.0889749	-0.0548945	-0.288885	0.304594	0.828628	1.5708	0	0	-0.128028	-0.26387	0.314788	0.686157	1.5708	0	0
3.19	-0.872239	1.55085	-0.610515	0.748251	-0.738111	0.942608	0.272552	-0.14067	-0.0867634	1.35619	-0.397964	0	0	0.0634302	0.032757	-0.122498	0.358403	-0.206837	0	0	-0.0714086	0.0381515	-0.0974808	-0.0586329	-0.289463	0.294623	0.832487	1.5708	0	0	-0.116828	-0.265629	0.321445	0.691117	1.5708	0	0
